# xmcd CD database file
#
# Track frame offsets:
#	187
#	15480
#	32830
#	51047
#	68210
#	81947
#	100297
#	119040
#	137205
#	154772
#	175682
#
# Disc length: 2589 seconds
#
# Revision: 0
# Processed by: cddbd v1.5PL3 Copyright (c) Steve Scherf et al.
# Submitted via: CDex 1.50
#
DISCID=910a1b0b
DTITLE=Paul Haig - Chain
DYEAR=1989
DGENRE=Pop
TTITLE0=Something Good
TTITLE1=True Blue
TTITLE2=Communication
TTITLE3=Swinging For You
TTITLE4=Time Of Her Time
TTITLE5=Faithless
TTITLE6=Times Can Change
TTITLE7=Turn The Vision
TTITLE8=Sooner Or Later
TTITLE9=Chained
TTITLE10=Ideal Of Living
EXTD=YEAR: 1989
EXTT0=
EXTT1=
EXTT2=
EXTT3=
EXTT4=
EXTT5=
EXTT6=
EXTT7=
EXTT8=
EXTT9=
EXTT10=
PLAYORDER=
